<?xml version="1.0" standalone="no"?><svg xmlns="http://www.w3.org/2000/svg" viewBox="0 0 1440 320"><path fill="#2B3499" fill-opacity="1" d="M0,160L30,149.3C60,139,120,117,180,106.7C240,96,300,96,360,117.3C420,139,480,181,540,181.3C600,181,660,139,720,122.7C780,107,840,117,900,149.3C960,181,1020,235,1080,218.7C1140,203,1200,117,1260,90.7C1320,64,1380,96,1410,112L1440,128L1440,320L1410,320C1380,320,1320,320,1260,320C1200,320,1140,320,1080,320C1020,320,960,320,900,320C840,320,780,320,720,320C660,320,600,320,540,320C480,320,420,320,360,320C300,320,240,320,180,320C120,320,60,320,30,320L0,320Z"></path></svg>